<svg width="1920" height="1920" viewBox="0 0 1920 1920" fill="none" xmlns="http://www.w3.org/2000/svg">
<path d="M1381.29 512.574C1293.71 430.306 1183.96 375.482 1065.58 354.867C947.199 334.252 825.374 348.749 715.138 396.569C604.902 444.388 511.079 523.438 445.248 623.962C379.418 724.485 344.46 842.084 344.69 962.245C344.919 1082.41 380.326 1199.87 446.54 1300.14C512.754 1400.41 606.878 1479.1 717.296 1526.5C827.714 1573.9 949.594 1587.93 1067.89 1566.86C1186.19 1545.8 1295.74 1490.55 1383 1407.95L1278.78 1297.85C1213.02 1360.1 1130.47 1401.73 1041.31 1417.6C952.161 1433.48 860.311 1422.91 777.099 1387.19C693.887 1351.47 622.954 1292.16 573.054 1216.6C523.154 1141.03 496.471 1052.51 496.298 961.955C496.125 871.401 522.469 782.777 572.08 707.021C621.691 631.265 692.397 571.692 775.472 535.655C858.547 499.617 950.356 488.692 1039.57 504.228C1128.78 519.763 1211.49 561.079 1277.5 623.077L1381.29 512.574Z" fill="#A80000"/>
<path d="M1560.95 830.464C1545.47 757.367 1516.8 687.702 1476.35 624.878L1348.88 706.952C1379.36 754.297 1400.97 806.797 1412.64 861.884L1560.95 830.464Z" fill="#A80000"/>
<path d="M1484.55 1278C1523.41 1214.18 1550.32 1143.82 1563.97 1070.35L1414.91 1042.67C1404.62 1098.03 1384.34 1151.06 1355.06 1199.15L1484.55 1278Z" fill="#A80000"/>
<path d="M1281.48 1299C1214.42 1366.05 1128.99 1411.72 1035.99 1430.22C942.979 1448.72 846.576 1439.22 758.966 1402.93C671.356 1366.65 596.475 1305.19 543.791 1226.34C491.107 1147.5 462.987 1054.8 462.987 959.971C462.987 865.143 491.107 772.444 543.791 693.597C596.475 614.75 671.356 553.297 758.966 517.007C846.576 480.718 942.979 471.223 1035.99 489.723C1128.99 508.223 1214.42 553.888 1281.48 620.941L1167.06 735.36C1122.63 690.936 1066.04 660.683 1004.42 648.427C942.8 636.17 878.932 642.461 820.889 666.503C762.847 690.545 713.237 731.259 678.333 783.495C643.43 835.732 624.8 897.146 624.8 959.971C624.8 1022.8 643.43 1084.21 678.333 1136.45C713.237 1188.68 762.847 1229.4 820.889 1253.44C878.932 1277.48 942.8 1283.77 1004.42 1271.51C1066.04 1259.26 1122.63 1229.01 1167.06 1184.58L1281.48 1299Z" fill="white"/>
<path d="M1349.46 706.548C1379.23 754.364 1400.35 807.052 1411.83 862.196L1253.42 895.194C1245.81 858.661 1231.82 823.754 1212.1 792.076L1349.46 706.548Z" fill="white"/>
<path d="M1414.62 1043.23C1404.9 1098.39 1385.58 1151.42 1357.55 1199.91L1217.46 1118.94C1236.03 1086.81 1248.83 1051.67 1255.27 1015.13L1414.62 1043.23Z" fill="white"/>
</svg>
