<svg width="30" height="30" viewBox="0 0 30 30" fill="none" xmlns="http://www.w3.org/2000/svg">
    <path d="M15 29C22.732 29 29 22.732 29 15C29 7.26801 22.732 1 15 1C7.26801 1 1 7.26801 1 15C1 22.732 7.26801 29 15 29Z" stroke="#6D7C92" stroke-width="2" stroke-linecap="round" stroke-linejoin="round"/>
    <path d="M15 20.6C18.0928 20.6 20.6 18.0928 20.6 15C20.6 11.9072 18.0928 9.40002 15 9.40002C11.9072 9.40002 9.40002 11.9072 9.40002 15C9.40002 18.0928 11.9072 20.6 15 20.6Z" stroke="#6D7C92" stroke-width="2" stroke-linecap="round" stroke-linejoin="round"/>
    <path d="M27.838 9.40002H15" stroke="#6D7C92" stroke-width="2" stroke-linecap="round" stroke-linejoin="round"/>
    <path d="M3.72998 6.68408L10.156 17.8001" stroke="#6D7C92" stroke-width="2" stroke-linecap="round" stroke-linejoin="round"/>
    <path d="M13.432 28.9161L19.844 17.8" stroke="#6D7C92" stroke-width="2" stroke-linecap="round" stroke-linejoin="round"/>
</svg>
