<svg width="17" height="17" viewBox="0 0 17 17" fill="none" xmlns="http://www.w3.org/2000/svg">
    <path d="M14.1667 6.375H7.79167C7.00926 6.375 6.375 7.00926 6.375 7.79167V14.1667C6.375 14.9491 7.00926 15.5833 7.79167 15.5833H14.1667C14.9491 15.5833 15.5833 14.9491 15.5833 14.1667V7.79167C15.5833 7.00926 14.9491 6.375 14.1667 6.375Z" stroke="#6D7C92" stroke-width="2" stroke-linecap="round" stroke-linejoin="round"/>
    <path d="M3.54175 10.625H2.83341C2.45769 10.625 2.09736 10.4757 1.83168 10.2101C1.566 9.94438 1.41675 9.58405 1.41675 9.20832V2.83332C1.41675 2.4576 1.566 2.09726 1.83168 1.83159C2.09736 1.56591 2.45769 1.41666 2.83341 1.41666H9.20841C9.58414 1.41666 9.94447 1.56591 10.2101 1.83159C10.4758 2.09726 10.6251 2.4576 10.6251 2.83332V3.54166" stroke="#6D7C92" stroke-width="2" stroke-linecap="round" stroke-linejoin="round"/>
</svg>
