<svg width="17" height="17" viewBox="0 0 17 17" fill="none" xmlns="http://www.w3.org/2000/svg">
    <path d="M2.125 4.25H3.54167H14.875" stroke="#6D7C92" stroke-width="2" stroke-linecap="round" stroke-linejoin="round"/>
    <path d="M5.66675 4.24999V2.83332C5.66675 2.4576 5.816 2.09727 6.08168 1.83159C6.34736 1.56591 6.70769 1.41666 7.08342 1.41666H9.91675C10.2925 1.41666 10.6528 1.56591 10.9185 1.83159C11.1842 2.09727 11.3334 2.4576 11.3334 2.83332V4.24999M13.4584 4.24999V14.1667C13.4584 14.5424 13.3092 14.9027 13.0435 15.1684C12.7778 15.4341 12.4175 15.5833 12.0417 15.5833H4.95841C4.58269 15.5833 4.22236 15.4341 3.95668 15.1684C3.691 14.9027 3.54175 14.5424 3.54175 14.1667V4.24999H13.4584Z" stroke="#6D7C92" stroke-width="2" stroke-linecap="round" stroke-linejoin="round"/>
</svg>
